<svg width="18" height="19" viewBox="0 0 18 19" fill="none" xmlns="http://www.w3.org/2000/svg">
<path d="M17.7026 5.63281C17.6129 5.58473 17.5118 5.56189 17.4102 5.56672C17.3085 5.57155 17.2101 5.60387 17.1253 5.66023L14.625 7.32383V5.5625C14.625 5.26413 14.5065 4.97798 14.2955 4.767C14.0845 4.55603 13.7984 4.4375 13.5 4.4375H2.25C1.95163 4.4375 1.66548 4.55603 1.4545 4.767C1.24353 4.97798 1.125 5.26413 1.125 5.5625V13.4375C1.125 13.7359 1.24353 14.022 1.4545 14.233C1.66548 14.444 1.95163 14.5625 2.25 14.5625H13.5C13.7984 14.5625 14.0845 14.444 14.2955 14.233C14.5065 14.022 14.625 13.7359 14.625 13.4375V11.6797L17.1253 13.3468C17.2182 13.4071 17.3268 13.4387 17.4375 13.4375C17.5867 13.4375 17.7298 13.3782 17.8352 13.2727C17.9407 13.1673 18 13.0242 18 12.875V6.125C17.9993 6.02379 17.9713 5.92465 17.9189 5.83803C17.8666 5.7514 17.7918 5.68051 17.7026 5.63281ZM13.5 13.4375H2.25V5.5625H13.5V13.4375ZM16.875 11.8238L14.625 10.3241V8.67594L16.875 7.17969V11.8238Z" fill="white"/>
</svg>
