<svg width="24" height="24" viewBox="0 0 24 24" fill="none" xmlns="http://www.w3.org/2000/svg">
<path fill-rule="evenodd" clip-rule="evenodd" d="M6.99993 3.73987L2.90623 5.64879C2.40569 5.88219 2.18914 6.47717 2.42254 6.97771L6.99993 16.7939V14.4277L3.32885 6.5551L6.99993 4.84325V3.73987Z" fill="black"/>
<path fill-rule="evenodd" clip-rule="evenodd" d="M7 3H17V18H16.2857L16.7619 19H17C17.5523 19 18 18.5523 18 18V3C18 2.44772 17.5523 2 17 2H7C6.44772 2 6 2.44772 6 3V18C6 18.5523 6.44772 19 7 19H12.7143L12 18H7L7 3Z" fill="black"/>
<path d="M16.5 18.5L14.3239 15.8887C14.1113 15.6336 13.8398 15.4274 13.5147 15.3598C12.8148 15.2143 11.6431 15.2154 11.9999 17C12.3685 18.843 14.0158 20.4143 14.8561 21.1129C15.172 21.3755 15.573 21.5 15.9839 21.5H18.4884C19.5077 21.5 20.3639 20.7335 20.4762 19.7205L20.906 15.8465C20.966 15.3057 20.8031 14.7637 20.4547 14.3457L18.5 12" stroke="black" stroke-linecap="round"/>
<path d="M11.5 6V11" stroke="black" stroke-linecap="round"/>
<circle cx="11.5" cy="13.5" r="0.5" fill="black"/>
</svg>
