<svg width="80" height="20" viewBox="0 0 80 20" fill="none" xmlns="http://www.w3.org/2000/svg">
<path d="M4.92632 8.91525L10.9339 1.40396H17.0156L9.50063 10.0265L17.7196 19.6152H11.3347L4.92632 11.7169V19.6152H0V1.40234H4.92632V8.91363V8.91525Z" fill="white"/>
<path d="M18.9253 2.46452C18.9253 2.12581 18.9927 1.80806 19.1257 1.50968C19.2605 1.21129 19.444 0.95 19.6781 0.724194C19.9122 0.498387 20.1851 0.322581 20.495 0.193548C20.8049 0.0645162 21.1367 0 21.487 0C21.8373 0 22.1691 0.0645162 22.479 0.193548C22.7889 0.322581 23.0617 0.5 23.2958 0.724194C23.5299 0.95 23.7152 1.21129 23.8482 1.50968C23.983 1.80806 24.0487 2.12581 24.0487 2.46452C24.0487 2.80323 23.9813 3.12097 23.8482 3.41936C23.7135 3.71774 23.5299 3.97903 23.2958 4.20484C23.0617 4.43064 22.7889 4.60806 22.479 4.73548C22.1691 4.86452 21.8373 4.92903 21.487 4.92903C21.1367 4.92903 20.8049 4.86452 20.495 4.73548C20.1851 4.60645 19.9122 4.42903 19.6781 4.20484C19.444 3.97903 19.2588 3.71774 19.1257 3.41936C18.991 3.12097 18.9253 2.80323 18.9253 2.46452ZM23.7758 7.22258V19.6145H19.2268V7.22258H23.7758Z" fill="white"/>
<path d="M36.3688 11.2324C35.5806 10.7179 34.7857 10.4598 33.9806 10.4598C33.5444 10.4598 33.1385 10.5324 32.7613 10.6775C32.384 10.8227 32.0539 11.0275 31.7693 11.2937C31.4846 11.5598 31.2623 11.8727 31.104 12.2356C30.944 12.5985 30.8648 13.005 30.8648 13.455C30.8648 13.905 30.944 14.2888 31.104 14.6501C31.2623 15.013 31.4813 15.3259 31.7575 15.592C32.0337 15.8582 32.3638 16.063 32.7495 16.2082C33.1352 16.3533 33.5444 16.4259 33.9806 16.4259C34.8345 16.4259 35.6312 16.1437 36.3688 15.5808V19.3001C35.2455 19.7662 34.1827 20.0001 33.1773 20.0001C32.2392 20.0001 31.3465 19.8469 30.501 19.5404C29.6556 19.234 28.9095 18.7953 28.2644 18.2243C27.6194 17.6533 27.104 16.9679 26.7183 16.1711C26.3326 15.3743 26.1406 14.484 26.1406 13.5017C26.1406 12.5195 26.3242 11.6211 26.693 10.8082C27.0619 9.99527 27.5638 9.29527 28.2004 8.70656C28.837 8.11947 29.5949 7.65979 30.4758 7.32915C31.3549 6.9985 32.2981 6.83398 33.3036 6.83398C34.4101 6.83398 35.4307 7.05979 36.3705 7.50979V11.2291L36.3688 11.2324Z" fill="white"/>
<path d="M43.8823 1.40234V11.6927L48.657 7.22331H54.8903L48.4313 12.9475L55.2675 19.6136H48.8827L43.8806 14.5652V19.6136H39.3315V1.40234H43.8806H43.8823Z" fill="white"/>
<path d="M64.6182 2.46452C64.6182 2.12581 64.6855 1.80806 64.8186 1.50968C64.9533 1.21129 65.1369 0.95 65.371 0.724194C65.6051 0.498387 65.878 0.322581 66.1878 0.193548C66.4977 0.0645162 66.8295 0 67.1799 0C67.5302 0 67.862 0.0645162 68.1719 0.193548C68.4817 0.322581 68.7546 0.5 68.9887 0.724194C69.2228 0.95 69.4081 1.21129 69.5411 1.50968C69.6759 1.80806 69.7415 2.12581 69.7415 2.46452C69.7415 2.80323 69.6742 3.12097 69.5411 3.41936C69.4064 3.71774 69.2228 3.97903 68.9887 4.20484C68.7546 4.43064 68.4817 4.60806 68.1719 4.73548C67.862 4.86452 67.5302 4.92903 67.1799 4.92903C66.8295 4.92903 66.4977 4.86452 66.1878 4.73548C65.878 4.60645 65.6051 4.42903 65.371 4.20484C65.1369 3.97903 64.9516 3.71774 64.8186 3.41936C64.6838 3.12097 64.6182 2.80323 64.6182 2.46452ZM69.4687 7.22258V19.6145H64.9196V7.22258H69.4687Z" fill="white"/>
<path d="M77.4114 8.76847V19.6136H72.8624V8.76847H71.355V5.1217H72.8624V1.40234H77.4114V5.1217H80V8.76847H77.4114Z" fill="white"/>
</svg>
