<svg width="44" height="44" viewBox="0 0 44 44" fill="none" xmlns="http://www.w3.org/2000/svg">
<path d="M22 42C33.0457 42 42 33.0457 42 22C42 10.9543 33.0457 2 22 2C10.9543 2 2 10.9543 2 22C2 33.0457 10.9543 42 22 42Z" fill="#C9F74A"/>
<path d="M27 31C27 28.24 24.76 26 22 26C19.24 26 17 28.24 17 31" stroke="#17181A" stroke-width="2" stroke-miterlimit="10" stroke-linecap="round"/>
<path d="M16 20C17.1046 20 18 19.1046 18 18C18 16.8954 17.1046 16 16 16C14.8954 16 14 16.8954 14 18C14 19.1046 14.8954 20 16 20Z" fill="#17181A"/>
<path d="M28 20C29.1046 20 30 19.1046 30 18C30 16.8954 29.1046 16 28 16C26.8954 16 26 16.8954 26 18C26 19.1046 26.8954 20 28 20Z" fill="#17181A"/>
<path d="M11.8089 26.5134C12.9385 24.3263 12.4479 20.9178 12.4479 20.9178C12.4479 20.9178 9.38448 22.4908 8.25493 24.6779C7.92207 25.3224 7.79007 26.0372 7.88795 26.665C7.98584 27.2929 8.3056 27.7823 8.77689 28.0258C9.24818 28.2692 9.83239 28.2466 10.401 27.9629C10.9696 27.6793 11.4761 27.1579 11.8089 26.5134Z" stroke="#17181A" stroke-width="2" stroke-linecap="round" stroke-linejoin="round"/>
</svg>
