<svg width="22" height="22" viewBox="0 0 22 22" fill="none" xmlns="http://www.w3.org/2000/svg">
<path d="M11 21C16.5228 21 21 16.5228 21 11C21 5.47715 16.5228 1 11 1C5.47715 1 1 5.47715 1 11C1 16.5228 5.47715 21 11 21Z" fill="#ABD536"/>
<path d="M13.5 15.5C13.5 14.12 12.38 13 11 13C9.62 13 8.5 14.12 8.5 15.5" stroke="#17181A" stroke-miterlimit="10" stroke-linecap="round"/>
<path d="M8 10C8.55228 10 9 9.55228 9 9C9 8.44772 8.55228 8 8 8C7.44772 8 7 8.44772 7 9C7 9.55228 7.44772 10 8 10Z" fill="#17181A"/>
<path d="M14 10C14.5523 10 15 9.55228 15 9C15 8.44772 14.5523 8 14 8C13.4477 8 13 8.44772 13 9C13 9.55228 13.4477 10 14 10Z" fill="#17181A"/>
<path d="M5.90447 13.2567C6.46924 12.1632 6.22395 10.4589 6.22395 10.4589C6.22395 10.4589 4.69224 11.2454 4.12747 12.339C3.96104 12.6612 3.89503 13.0186 3.94398 13.3325C3.99292 13.6464 4.1528 13.8912 4.38844 14.0129C4.62409 14.1346 4.91619 14.1233 5.2005 13.9815C5.48481 13.8397 5.73804 13.579 5.90447 13.2567Z" stroke="#17181A" stroke-linecap="round" stroke-linejoin="round"/>
</svg>
