<svg width="80" height="102" viewBox="0 0 80 102" fill="none" xmlns="http://www.w3.org/2000/svg">
<g clip-path="url(#clip0_5260_16443)">
<path d="M40 1.9889C44.5924 1.9889 49.0465 2.88788 53.2381 4.66098C57.2875 6.37341 60.9252 8.82672 64.0497 11.9503C67.1743 15.0748 69.6266 18.7115 71.339 22.7619C73.1121 26.9535 74.0111 31.4076 74.0111 36C74.0111 40.5924 73.1121 45.0465 71.339 49.2381C69.6266 53.2875 67.1733 56.9252 64.0497 60.0497C60.9252 63.1743 57.2885 65.6266 53.2381 67.339C49.0465 69.1121 44.5924 70.0111 40 70.0111C35.4076 70.0111 30.9535 69.1121 26.7619 67.339C22.7125 65.6266 19.0748 63.1733 15.9503 60.0497C12.8257 56.9252 10.3734 53.2885 8.66098 49.2381C6.88788 45.0465 5.9889 40.5924 5.9889 36C5.9889 31.4076 6.88788 26.9535 8.66098 22.7619C10.3734 18.7125 12.8267 15.0748 15.9503 11.9503C19.0748 8.82572 22.7115 6.37341 26.7619 4.66098C30.9535 2.88788 35.4076 1.9889 40 1.9889ZM40 0C20.118 0 4 16.118 4 36C4 55.882 20.118 72 40 72C59.882 72 76 55.882 76 36C76 16.118 59.882 0 40 0Z" fill="#C9F74A"/>
<path d="M61.7139 33.5415L68.86 21.1636C66.3689 16.266 62.602 11.954 57.7043 8.77877L44.6621 14.5853L35.1095 3.97559C29.5794 4.85468 24.3068 7.16379 19.8785 10.7458L21.3722 24.9554L8.31907 30.767C7.43003 36.3966 8.06747 42.1216 10.0743 47.3514L24.0254 50.3158L25.516 64.5026C30.715 67.1588 36.3356 68.2686 41.824 67.9772L48.9681 55.6033L62.95 58.5747C64.8922 56.6296 66.6146 54.402 68.0535 51.908C69.4925 49.4159 70.5595 46.8124 71.2736 44.1602L61.711 33.5405L61.7139 33.5415Z" fill="#C9F74A"/>
<path d="M33.8632 31.015C35.0001 31.015 35.9217 29.4669 35.9217 27.5573C35.9217 25.6477 35.0001 24.0996 33.8632 24.0996C32.7263 24.0996 31.8047 25.6477 31.8047 27.5573C31.8047 29.4669 32.7263 31.015 33.8632 31.015Z" fill="black"/>
<path d="M46.8617 31.015C47.9986 31.015 48.9202 29.4669 48.9202 27.5573C48.9202 25.6477 47.9986 24.0996 46.8617 24.0996C45.7248 24.0996 44.8032 25.6477 44.8032 27.5573C44.8032 29.4669 45.7248 31.015 46.8617 31.015Z" fill="black"/>
<path d="M54.7317 39.2369C54.7317 39.2369 48.1564 43.8939 27.8149 35.9761C28.0705 41.2795 29.5781 45.4999 32.3387 48.6354C35.677 52.4282 41.4488 52.9364 45.1959 49.5463C47.9356 47.0681 48.8127 44.584 49.5973 40.6898" fill="white"/>
<path d="M39.3069 52.5577C39.1199 52.5577 38.9329 52.5527 38.745 52.5418C36.0938 52.3906 33.555 51.1466 31.7789 49.1288C28.9169 45.878 27.3327 41.4646 27.0702 36.0121C27.0582 35.7595 27.1746 35.5188 27.3794 35.3707C27.5843 35.2235 27.8498 35.1897 28.0855 35.2812C33.7379 37.4809 41.8974 40.0585 48.6527 39.8387C51.8627 39.7343 53.7542 38.9984 54.3061 38.6245C54.6422 38.3858 55.1046 38.4684 55.3423 38.8045C55.58 39.1406 55.4974 39.608 55.1613 39.8467C55.036 39.9352 53.605 40.8978 50.2468 41.2319C49.4353 45.1182 48.4617 47.5984 45.6952 50.1014C43.931 51.6965 41.6806 52.5587 39.3059 52.5587L39.3069 52.5577ZM28.6374 37.0901C29.0352 41.6655 30.4662 45.3798 32.8986 48.1434C34.4132 49.8637 36.5751 50.9238 38.8305 51.0521C41.0084 51.1764 43.0917 50.4455 44.6968 48.9936C47.0844 46.8347 47.9625 44.7334 48.7024 41.3314C44.5396 41.4656 38.1016 40.6522 28.6384 37.0901H28.6374Z" fill="black"/>
</g>
<path d="M4.92632 90.9143L10.9339 83.403H17.0156L9.50063 92.0256L17.7196 101.614H11.3347L4.92632 93.7159V101.614H0V83.4014H4.92632V90.9127V90.9143Z" fill="white"/>
<path d="M18.9253 84.4645C18.9253 84.1258 18.9927 83.8081 19.1257 83.5097C19.2605 83.2113 19.444 82.95 19.6781 82.7242C19.9122 82.4984 20.1851 82.3226 20.495 82.1935C20.8049 82.0645 21.1367 82 21.487 82C21.8373 82 22.1691 82.0645 22.479 82.1935C22.7889 82.3226 23.0617 82.5 23.2958 82.7242C23.5299 82.95 23.7152 83.2113 23.8482 83.5097C23.983 83.8081 24.0487 84.1258 24.0487 84.4645C24.0487 84.8032 23.9813 85.121 23.8482 85.4194C23.7135 85.7177 23.5299 85.979 23.2958 86.2048C23.0617 86.4306 22.7889 86.6081 22.479 86.7355C22.1691 86.8645 21.8373 86.929 21.487 86.929C21.1367 86.929 20.8049 86.8645 20.495 86.7355C20.1851 86.6065 19.9122 86.429 19.6781 86.2048C19.444 85.979 19.2588 85.7177 19.1257 85.4194C18.991 85.121 18.9253 84.8032 18.9253 84.4645ZM23.7758 89.2226V101.615H19.2268V89.2226H23.7758Z" fill="white"/>
<path d="M36.3688 93.2324C35.5806 92.7179 34.7857 92.4598 33.9806 92.4598C33.5444 92.4598 33.1385 92.5324 32.7613 92.6775C32.384 92.8227 32.0539 93.0275 31.7693 93.2937C31.4846 93.5598 31.2623 93.8727 31.104 94.2356C30.944 94.5985 30.8648 95.005 30.8648 95.455C30.8648 95.905 30.944 96.2888 31.104 96.6501C31.2623 97.013 31.4813 97.3259 31.7575 97.592C32.0337 97.8582 32.3638 98.063 32.7495 98.2082C33.1352 98.3533 33.5444 98.4259 33.9806 98.4259C34.8345 98.4259 35.6312 98.1437 36.3688 97.5808V101.3C35.2455 101.766 34.1827 102 33.1773 102C32.2392 102 31.3465 101.847 30.501 101.54C29.6556 101.234 28.9095 100.795 28.2644 100.224C27.6194 99.6533 27.104 98.9679 26.7183 98.1711C26.3326 97.3743 26.1406 96.484 26.1406 95.5017C26.1406 94.5195 26.3242 93.6211 26.693 92.8082C27.0619 91.9953 27.5638 91.2953 28.2004 90.7066C28.837 90.1195 29.5949 89.6598 30.4758 89.3291C31.3549 88.9985 32.2981 88.834 33.3036 88.834C34.4101 88.834 35.4307 89.0598 36.3705 89.5098V93.2291L36.3688 93.2324Z" fill="white"/>
<path d="M43.8823 83.4014V93.6917L48.657 89.2223H54.8903L48.4313 94.9465L55.2675 101.613H48.8827L43.8806 96.5643V101.613H39.3315V83.4014H43.8806H43.8823Z" fill="white"/>
<path d="M64.6182 84.4645C64.6182 84.1258 64.6855 83.8081 64.8186 83.5097C64.9533 83.2113 65.1369 82.95 65.371 82.7242C65.6051 82.4984 65.878 82.3226 66.1878 82.1935C66.4977 82.0645 66.8295 82 67.1799 82C67.5302 82 67.862 82.0645 68.1719 82.1935C68.4817 82.3226 68.7546 82.5 68.9887 82.7242C69.2228 82.95 69.4081 83.2113 69.5411 83.5097C69.6759 83.8081 69.7415 84.1258 69.7415 84.4645C69.7415 84.8032 69.6742 85.121 69.5411 85.4194C69.4064 85.7177 69.2228 85.979 68.9887 86.2048C68.7546 86.4306 68.4817 86.6081 68.1719 86.7355C67.862 86.8645 67.5302 86.929 67.1799 86.929C66.8295 86.929 66.4977 86.8645 66.1878 86.7355C65.878 86.6065 65.6051 86.429 65.371 86.2048C65.1369 85.979 64.9516 85.7177 64.8186 85.4194C64.6838 85.121 64.6182 84.8032 64.6182 84.4645ZM69.4687 89.2226V101.615H64.9196V89.2226H69.4687Z" fill="white"/>
<path d="M77.4114 90.7695V101.615H72.8624V90.7695H71.355V87.1227H72.8624V83.4033H77.4114V87.1227H80V90.7695H77.4114Z" fill="white"/>
<defs>
<clipPath id="clip0_5260_16443">
<rect width="72" height="72" fill="white" transform="translate(4)"/>
</clipPath>
</defs>
</svg>
