<svg width="18" height="18" viewBox="0 0 18 18" fill="none" xmlns="http://www.w3.org/2000/svg">
<path d="M2.97708 12.7733L5.22708 15.0233C5.33263 15.1288 5.47578 15.1881 5.62505 15.1881C5.77431 15.1881 5.91747 15.1288 6.02302 15.0233C6.12856 14.9177 6.18786 14.7746 6.18786 14.6253C6.18786 14.476 6.12856 14.3329 6.02302 14.2273L4.73278 12.9378H14.625C14.7742 12.9378 14.9173 12.8786 15.0228 12.7731C15.1283 12.6676 15.1875 12.5245 15.1875 12.3753C15.1875 12.2261 15.1283 12.0831 15.0228 11.9776C14.9173 11.8721 14.7742 11.8128 14.625 11.8128H4.73278L6.02302 10.5233C6.12856 10.4177 6.18786 10.2746 6.18786 10.1253C6.18786 9.97605 6.12856 9.83289 6.02302 9.72734C5.91747 9.6218 5.77431 9.5625 5.62505 9.5625C5.47578 9.5625 5.33263 9.6218 5.22708 9.72734L2.97708 11.9773C2.92478 12.0296 2.88329 12.0916 2.85498 12.1599C2.82667 12.2282 2.8121 12.3014 2.8121 12.3753C2.8121 12.4492 2.82667 12.5224 2.85498 12.5907C2.88329 12.659 2.92478 12.721 2.97708 12.7733ZM12.773 8.27328C12.6675 8.37883 12.5243 8.43813 12.375 8.43813C12.2258 8.43813 12.0826 8.37883 11.9771 8.27328C11.8715 8.16773 11.8122 8.02458 11.8122 7.87531C11.8122 7.72605 11.8715 7.58289 11.9771 7.47734L13.2673 6.18781H3.37505C3.22586 6.18781 3.08279 6.12855 2.9773 6.02306C2.87181 5.91757 2.81255 5.7745 2.81255 5.62531C2.81255 5.47613 2.87181 5.33305 2.9773 5.22757C3.08279 5.12208 3.22586 5.06281 3.37505 5.06281H13.2673L11.9771 3.77328C11.8715 3.66773 11.8122 3.52458 11.8122 3.37531C11.8122 3.22605 11.8715 3.08289 11.9771 2.97734C12.0826 2.8718 12.2258 2.8125 12.375 2.8125C12.5243 2.8125 12.6675 2.8718 12.773 2.97734L15.023 5.22734C15.0753 5.27958 15.1168 5.34162 15.1451 5.40991C15.1734 5.4782 15.188 5.55139 15.188 5.62531C15.188 5.69923 15.1734 5.77243 15.1451 5.84072C15.1168 5.909 15.0753 5.97104 15.023 6.02328L12.773 8.27328Z" fill="white"/>
</svg>
