<svg width="24" height="24" viewBox="0 0 24 24" fill="none" xmlns="http://www.w3.org/2000/svg">
<path d="M18.0004 18.7504H8.25037C8.05145 18.7504 7.86069 18.6714 7.72004 18.5307C7.57938 18.3901 7.50037 18.1993 7.50037 18.0004C7.50037 17.8015 7.57938 17.6107 7.72004 17.4701C7.86069 17.3294 8.05145 17.2504 8.25037 17.2504H16.1901L5.46974 6.53104C5.32901 6.39031 5.24995 6.19944 5.24995 6.00042C5.24995 5.80139 5.32901 5.61052 5.46974 5.46979C5.61047 5.32906 5.80134 5.25 6.00037 5.25C6.19939 5.25 6.39026 5.32906 6.53099 5.46979L17.2504 16.1901V8.25042C17.2504 8.0515 17.3294 7.86074 17.47 7.72009C17.6107 7.57943 17.8015 7.50042 18.0004 7.50042C18.1993 7.50042 18.39 7.57943 18.5307 7.72009C18.6713 7.86074 18.7504 8.0515 18.7504 8.25042V18.0004C18.7504 18.1993 18.6713 18.3901 18.5307 18.5307C18.39 18.6714 18.1993 18.7504 18.0004 18.7504Z" fill="#36CFDB"/>
</svg>
