<svg width="32" height="32" viewBox="0 0 32 32" fill="none" xmlns="http://www.w3.org/2000/svg">
<path d="M16.1939 0C17.0445 0.67 17.8847 1.34 18.6419 2.11C19.171 2.65 19.6792 3.2 20.1253 3.79C20.2497 3.95 20.3327 3.97 20.4987 3.83C20.7891 3.58 21.09 3.35 21.3908 3.12C21.7123 2.87 21.8679 2.87 22.1895 3.12C24.7827 5.05 26.7847 7.45 28.1643 10.32C29.5232 13.15 30.1767 16.12 29.9588 19.23C29.6165 24.05 27.2307 27.69 22.9882 30.18C21.1937 31.24 19.2125 31.8 17.1171 31.95C17.0445 31.95 16.9719 31.98 16.8993 32H15.0944C14.5446 31.92 13.9949 31.86 13.4451 31.76C10.2399 31.19 7.55326 29.69 5.42681 27.31C2.98917 24.59 1.85852 21.39 2.01411 17.79C2.27344 11.75 4.91854 6.88 9.78345 3.13C10.1361 2.86 10.2813 2.86 10.634 3.13C10.9452 3.37 11.2564 3.61 11.5572 3.86C11.6506 3.93 11.7128 3.98 11.8165 3.86C12.9472 2.38 14.3164 1.13 15.8101 0L16.1939 0ZM2.95805 18.25C2.96842 18.86 2.98917 19.46 3.07215 20.06C3.15514 20.66 3.27961 21.25 3.44558 21.83C4.96003 27.05 9.80419 30.8 15.3745 31.04C17.9573 31.15 20.395 30.61 22.6044 29.3C26.515 26.97 28.7037 23.58 29.0045 19.12C29.212 16.07 28.5377 13.16 27.1685 10.41C25.9341 7.94 24.2018 5.86 22.0028 4.14C21.8472 4.02 21.7538 4.01 21.5982 4.14C21.3285 4.38 21.0381 4.6 20.7684 4.83C20.2498 5.28 20.063 5.26 19.6377 4.71C18.6523 3.4 17.5113 2.23 16.2043 1.21C16.0383 1.08 15.945 1.08 15.779 1.21C14.4409 2.27 13.2584 3.47 12.2522 4.83C11.9721 5.21 11.7024 5.23 11.3394 4.93C11.0282 4.67 10.7066 4.43 10.4162 4.15C10.2502 3.99 10.1361 4.01 9.95979 4.15C5.39569 7.8 3.10327 12.52 2.9373 18.23L2.95805 18.25Z" fill="#FF4D4D"/>
<path d="M24 18.991C24.009 23.3906 20.4183 26.991 16.0045 27C11.5907 27 8.00906 23.4265 8.00002 19.009C7.99097 14.6094 11.5817 11.009 15.9955 11C20.4093 11 23.9909 14.5735 24 18.991ZM15.9864 16.1987C16.4296 16.1987 16.8638 16.1987 17.3069 16.1987C17.4517 16.1987 17.5512 16.1717 17.6326 16.046C17.9582 15.5881 18.2838 15.1392 18.6184 14.6813C18.6998 14.5735 18.7089 14.4837 18.6546 14.349C18.3199 13.6308 17.9853 12.9125 17.6597 12.1852C17.6054 12.0595 17.524 11.9966 17.3974 11.9787C16.4658 11.7991 15.5432 11.7991 14.6116 11.9787C14.485 12.0056 14.4036 12.0595 14.3494 12.1852C14.0237 12.9035 13.6981 13.6128 13.3635 14.3221C13.2911 14.4658 13.3002 14.5735 13.3997 14.6992C13.7253 15.1302 14.0509 15.5701 14.3584 16.0101C14.4579 16.1538 14.5664 16.1987 14.7292 16.1897C15.1543 16.1807 15.5704 16.1897 15.9955 16.1897L15.9864 16.1987ZM19.5681 15.0404C19.4686 15.0135 19.3782 15.0673 19.2968 15.1841C18.9712 15.642 18.6456 16.0999 18.3019 16.5488C18.2205 16.6566 18.2114 16.7553 18.2476 16.881C18.528 17.725 18.7993 18.569 19.0707 19.413C19.1068 19.5297 19.1611 19.6016 19.2877 19.6375C19.8394 19.8081 20.3912 19.9877 20.9429 20.1762C21.0514 20.2121 21.1328 20.2031 21.2142 20.1223C21.8112 19.5657 22.4081 19.018 23.0051 18.4613C23.0774 18.3984 23.1317 18.3356 23.1136 18.2189C22.996 17.2402 22.6976 16.3244 22.2182 15.4714C22.173 15.3906 22.1187 15.3457 22.0192 15.3367C21.2142 15.2469 20.4002 15.1481 19.5591 15.0494L19.5681 15.0404ZM8.88639 18.2278C8.85021 18.3535 8.94066 18.4074 9.00397 18.4703C9.58283 19.009 10.1707 19.5477 10.7496 20.0954C10.8672 20.2031 10.9576 20.2121 11.1023 20.1582C11.6269 19.9787 12.1515 19.8081 12.6761 19.6465C12.8208 19.6016 12.8841 19.5297 12.9293 19.3861C13.1916 18.56 13.463 17.734 13.7343 16.908C13.7886 16.7464 13.7705 16.6296 13.662 16.5039C13.3454 16.0909 13.0379 15.6689 12.7394 15.229C12.6309 15.0673 12.5042 15.0224 12.3234 15.0494C11.5546 15.1481 10.7858 15.2379 10.0079 15.3277C9.90844 15.3367 9.83608 15.3636 9.78181 15.4624C9.28436 16.3244 8.98588 17.2492 8.87735 18.2278H8.88639ZM15.5794 23.2738C15.5794 22.9327 15.5794 22.6453 15.5794 22.367C15.5794 22.2323 15.5523 22.1425 15.4347 22.0617C14.7021 21.541 13.9785 21.0112 13.255 20.4815C13.1645 20.4186 13.0831 20.4007 12.9746 20.4366C12.4228 20.6251 11.8802 20.7957 11.3194 20.9753C11.2018 21.0112 11.1385 21.0741 11.1114 21.1998C10.9667 21.9809 10.8129 22.7531 10.6501 23.5342C10.623 23.6599 10.632 23.7587 10.7315 23.8575C11.3827 24.5488 12.1244 25.0965 12.9836 25.5006C13.1193 25.5634 13.2188 25.5634 13.3454 25.4826C13.7795 25.2312 14.2227 24.9888 14.6659 24.7374C14.9553 24.5758 15.3352 24.468 15.5161 24.2166C15.697 23.9562 15.5523 23.5432 15.5704 23.2649L15.5794 23.2738ZM16.4206 23.0584C16.4206 23.4624 16.4206 23.7318 16.4206 24.0101C16.4206 24.1717 16.4658 24.2615 16.6105 24.3423C17.2889 24.7104 17.9672 25.0875 18.6365 25.4826C18.7903 25.5724 18.9079 25.5634 19.0526 25.4826C19.8756 25.0875 20.6082 24.5488 21.2323 23.8844C21.3409 23.7677 21.377 23.6689 21.3409 23.5163C21.1781 22.7531 21.0243 21.9809 20.8886 21.2088C20.8615 21.0561 20.771 20.9933 20.6354 20.9484C20.1198 20.7868 19.6043 20.6162 19.0887 20.4456C18.935 20.3917 18.8174 20.4186 18.6817 20.5174C18.2114 20.8765 17.7592 21.2536 17.2527 21.5499C16.6015 21.936 16.1945 22.3939 16.4206 23.0584ZM16.0045 17.0426C15.6066 17.0426 15.1995 17.0426 14.8016 17.0426C14.6388 17.0426 14.5483 17.0786 14.5031 17.2492C14.2589 18.0213 14.0147 18.7935 13.7524 19.5657C13.6981 19.7183 13.7434 19.7991 13.87 19.8799C14.5212 20.3468 15.1724 20.8137 15.8236 21.2985C15.9593 21.3973 16.0497 21.4153 16.1854 21.3075C16.8366 20.8227 17.4969 20.3468 18.1571 19.8709C18.2928 19.7722 18.3019 19.6914 18.2566 19.5477C18.0034 18.7845 17.7501 18.0213 17.515 17.2581C17.4607 17.0786 17.3703 17.0337 17.1984 17.0337C16.8095 17.0426 16.4115 17.0337 16.0226 17.0337L16.0045 17.0426ZM14.3222 25.8956C15.4528 26.2189 16.5562 26.2278 17.7411 25.9315C17.1532 25.5993 16.6196 25.303 16.095 25.0067C16.0317 24.9708 15.9774 24.9708 15.9141 25.0067C15.3895 25.303 14.8559 25.5993 14.3313 25.8956H14.3222ZM10.5144 14.4209C11.1837 14.3401 11.7807 14.2682 12.3867 14.2054C12.459 14.2054 12.5042 14.1695 12.5404 14.1066C12.7937 13.5499 13.056 13.0022 13.3454 12.3737C12.2058 12.8406 11.3104 13.4961 10.5235 14.4209H10.5144ZM21.4856 14.4209C20.6987 13.4961 19.8033 12.8406 18.6636 12.3737C18.944 12.9933 19.1973 13.541 19.4505 14.0887C19.4867 14.1605 19.5319 14.2054 19.6224 14.2144C20.2193 14.2772 20.8163 14.349 21.4856 14.4299V14.4209ZM8.92257 19.5477C8.95875 20.7059 9.2934 21.7654 9.93557 22.807C10.0712 22.1336 10.1888 21.532 10.3154 20.9394C10.3335 20.8586 10.2883 20.8137 10.234 20.7688C9.7999 20.3648 9.35671 19.9607 8.92257 19.5477ZM23.1317 19.5657C23.1317 19.5657 23.0684 19.5657 23.0593 19.5746C22.7609 19.844 22.4895 20.1493 22.1639 20.3827C21.7388 20.688 21.6303 21.0292 21.7931 21.523C21.9197 21.9181 21.974 22.3311 22.0644 22.807C22.7066 21.7654 23.0503 20.7149 23.1407 19.5657H23.1317Z" fill="#BFC3C6"/>
<path d="M7.12094 12.4235C7.12094 12.4235 9.20744 9.30176 10.628 7.96552C10.8944 7.71209 11.1607 7.30892 11.4604 7.30892C11.7378 7.30892 12.0042 7.71209 12.2706 7.94248C12.7367 8.35717 12.9365 8.34565 13.336 7.87336C14.0907 6.97486 14.912 6.15699 15.7998 5.39671C15.9663 5.24696 16.0662 5.27 16.2327 5.39671C17.1316 6.15699 17.964 6.9979 18.7187 7.90792C19.0738 8.33413 19.3069 8.34565 19.7064 7.98856C19.9173 7.80425 20.1393 7.61994 20.339 7.42411C20.5055 7.25132 20.6276 7.28588 20.7941 7.42411C22.1591 8.59908 23.3467 9.9238 24.29 11.4904C24.4787 11.8014 24.8893 12.4235 24.8893 12.4235C25.1493 12.8137 25.2791 12.9833 25.4331 12.9994C25.8916 12.9865 26.0115 12.8284 25.9992 12.4235C25.9992 12.4235 25.4886 11.4559 25.2001 10.9836C24.0681 9.12897 22.6586 7.55082 20.9716 6.21458C20.6831 5.9842 20.4167 5.96116 20.1282 6.21458C19.9395 6.37585 19.7286 6.51409 19.5621 6.68688C19.3624 6.89422 19.2292 6.91726 19.0183 6.66384C18.2525 5.76533 17.3869 4.95898 16.4657 4.23327C16.0773 3.92224 15.933 3.92224 15.5446 4.23327C14.6012 4.98202 13.7355 5.79989 12.9365 6.70991C12.7811 6.89422 12.6701 6.92878 12.4925 6.74447C12.315 6.56016 12.1041 6.41041 11.9043 6.24914C11.5159 5.93812 11.3716 5.93812 10.9832 6.24914C8.8079 8.03463 5.98896 11.8475 6.00003 12.4235C6.03546 12.8387 6.17906 12.9374 6.56602 12.9994C6.72102 13.0091 6.83853 12.8941 7.12094 12.4235Z" fill="#FF7C33"/>
</svg>
