<svg width="24" height="24" viewBox="0 0 24 24" fill="none" xmlns="http://www.w3.org/2000/svg">
<path fill-rule="evenodd" clip-rule="evenodd" d="M6 3H16V18H15.2857L15.7619 19H16C16.5523 19 17 18.5523 17 18V3C17 2.44772 16.5523 2 16 2H6C5.44772 2 5 2.44772 5 3V18C5 18.5523 5.44772 19 6 19H11.7143L11 18H6L6 3Z" fill="white"/>
<path d="M8 7L14 13M14 7L8 13" stroke="white" stroke-linecap="round"/>
<path d="M15.5 18.5L13.3239 15.8887C13.1113 15.6336 12.8398 15.4274 12.5147 15.3598C11.8148 15.2143 10.6431 15.2154 10.9999 17C11.3685 18.843 13.0158 20.4143 13.8561 21.1129C14.172 21.3755 14.573 21.5 14.9839 21.5H17.4884C18.5077 21.5 19.3639 20.7335 19.4762 19.7205L19.906 15.8465C19.966 15.3057 19.8031 14.7637 19.4547 14.3457L17.5 12" stroke="white" stroke-linecap="round"/>
</svg>
