<svg width="80" height="80" viewBox="0 0 80 80" fill="none" xmlns="http://www.w3.org/2000/svg">
<rect width="80" height="80" rx="40" fill="#676B70"/>
<path d="M55 27L53.7606 47.0502C53.4438 52.1728 53.2856 54.7342 52.0016 56.5758C51.3666 57.4862 50.5494 58.2546 49.6014 58.832C47.6842 60 45.118 60 39.9854 60C34.8462 60 32.2766 60 30.3581 58.8298C29.4096 58.2514 28.592 57.4816 27.9574 56.5696C26.6738 54.7252 26.5189 52.1602 26.2092 47.0304L25 27" stroke="white" stroke-width="3" stroke-linecap="round"/>
<path d="M22 27H58M48.1114 27L46.7462 24.1835C45.8392 22.3125 45.3856 21.377 44.6034 20.7936C44.43 20.6642 44.2462 20.5491 44.054 20.4494C43.1878 20 42.1482 20 40.069 20C37.9376 20 36.872 20 35.9914 20.4682C35.7962 20.572 35.61 20.6918 35.4346 20.8263C34.6433 21.4334 34.2013 22.4031 33.3172 24.3425L32.1058 27" stroke="white" stroke-width="3" stroke-linecap="round"/>
<path d="M35 49V37" stroke="white" stroke-width="3" stroke-linecap="round"/>
<path d="M45 49V37" stroke="white" stroke-width="3" stroke-linecap="round"/>
</svg>
