<svg width="72" height="72" viewBox="0 0 72 72" fill="none" xmlns="http://www.w3.org/2000/svg">
<g clip-path="url(#clip0_5025_9253)">
<path d="M27 56.5715C27 58.9585 27.9482 61.2477 29.636 62.9355C31.3239 64.6233 33.6131 65.5715 36 65.5715C38.3869 65.5715 40.6761 64.6233 42.364 62.9355C44.0518 61.2477 45 58.9585 45 56.5715" fill="#7B8086"/>
<path d="M15.7492 26.6785C15.7492 21.3078 17.8826 16.1572 21.6802 12.3596C25.4779 8.56194 30.6285 6.42847 35.9992 6.42847C41.3698 6.42847 46.5205 8.56194 50.3181 12.3596C54.1157 16.1572 56.2492 21.3078 56.2492 26.6785C56.2492 36.7528 58.5835 44.8472 60.4398 48.0535C60.6369 48.3949 60.7409 48.7822 60.7412 49.1765C60.7416 49.5708 60.6383 49.9582 60.4418 50.3C60.2452 50.6419 59.9623 50.926 59.6214 51.1241C59.2804 51.3221 58.8934 51.4271 58.4992 51.4285H13.4992C13.1054 51.4261 12.7191 51.3204 12.3789 51.122C12.0387 50.9235 11.7566 50.6393 11.5608 50.2976C11.3649 49.956 11.2621 49.5689 11.2627 49.1751C11.2633 48.7813 11.3672 48.3945 11.5642 48.0535C13.4176 44.8472 15.7492 36.75 15.7492 26.6785Z" fill="#7B8086" stroke="#7B8086" stroke-width="1.5" stroke-linecap="round" stroke-linejoin="round"/>
</g>
<defs>
<clipPath id="clip0_5025_9253">
<rect width="72" height="72" fill="white"/>
</clipPath>
</defs>
</svg>
