<svg width="28" height="28" viewBox="0 0 28 28" fill="none" xmlns="http://www.w3.org/2000/svg">
<g clip-path="url(#clip0_5795_15067)">
<path d="M11.375 23.6252V16.6252H16.625V23.6252H23.625V13.1252C23.6251 13.0103 23.6025 12.8964 23.5586 12.7902C23.5147 12.684 23.4503 12.5875 23.3691 12.5061L14.6191 3.75614C14.5378 3.67478 14.4413 3.61024 14.3351 3.56621C14.2288 3.52218 14.115 3.49951 14 3.49951C13.885 3.49951 13.7712 3.52218 13.6649 3.56621C13.5587 3.61024 13.4622 3.67478 13.3809 3.75614L4.63094 12.5061C4.54971 12.5875 4.4853 12.684 4.44138 12.7902C4.39747 12.8964 4.37491 13.0103 4.375 13.1252V23.6252H11.375Z" stroke="#9FA4A9" stroke-linecap="round" stroke-linejoin="round"/>
</g>
<defs>
<clipPath id="clip0_5795_15067">
<rect width="28" height="28" fill="white"/>
</clipPath>
</defs>
</svg>
