<svg width="22" height="22" viewBox="0 0 22 22" fill="none" xmlns="http://www.w3.org/2000/svg">
<path d="M11 21C16.5228 21 21 16.5228 21 11C21 5.47715 16.5228 1 11 1C5.47715 1 1 5.47715 1 11C1 16.5228 5.47715 21 11 21Z" fill="#ABD536"/>
<path d="M8 10C8.55228 10 9 9.55228 9 9C9 8.44772 8.55228 8 8 8C7.44772 8 7 8.44772 7 9C7 9.55228 7.44772 10 8 10Z" fill="#17181A"/>
<path d="M14 10C14.5523 10 15 9.55228 15 9C15 8.44772 14.5523 8 14 8C13.4477 8 13 8.44772 13 9C13 9.55228 13.4477 10 14 10Z" fill="#17181A"/>
<path d="M11 16.5C11.8284 16.5 12.5 15.4926 12.5 14.25C12.5 13.0074 11.8284 12 11 12C10.1716 12 9.5 13.0074 9.5 14.25C9.5 15.4926 10.1716 16.5 11 16.5Z" fill="#17181A"/>
</svg>
