<svg width="24" height="24" viewBox="0 0 24 24" fill="none" xmlns="http://www.w3.org/2000/svg">
<path d="M13 5.66666V7.66666" stroke="white" stroke-linecap="round" stroke-linejoin="round"/>
<path d="M7.76416 9.34085L9.66666 9.95835" stroke="white" stroke-linecap="round" stroke-linejoin="round"/>
<path d="M9.76416 15.285L10.94 13.6667" stroke="white" stroke-linecap="round" stroke-linejoin="round"/>
<path d="M16.2359 15.285L15.0601 13.6667" stroke="white" stroke-linecap="round" stroke-linejoin="round"/>
<path d="M18.2358 9.34085L16.3333 9.95835" stroke="white" stroke-linecap="round" stroke-linejoin="round"/>
<path d="M16.0209 3.59L13.0001 5.66666L9.97925 3.59" stroke="white" stroke-linecap="round" stroke-linejoin="round"/>
<path d="M20.9876 11.4517L18.2351 9.33999L19.2309 5.98166" stroke="white" stroke-linecap="round" stroke-linejoin="round"/>
<path d="M6.76936 5.98166L7.76436 9.33999L5.0127 11.4517" stroke="white" stroke-linecap="round" stroke-linejoin="round"/>
<path d="M15.0107 18.745L16.2357 15.285H19.7566" stroke="white" stroke-linecap="round" stroke-linejoin="round"/>
<path d="M6.24316 15.285H9.764L10.989 18.745" stroke="white" stroke-linecap="round" stroke-linejoin="round"/>
<path d="M6 18L3 21" stroke="white" stroke-linecap="round"/>
<path d="M5 16L3 18" stroke="white" stroke-linecap="round"/>
<path d="M8 19L6 21" stroke="white" stroke-linecap="round"/>
<path d="M13.0001 7.66666L9.66675 9.95832L10.9401 13.6667H15.0601L16.3334 9.95832L13.0001 7.66666Z" stroke="white" stroke-linecap="round" stroke-linejoin="round"/>
<path d="M13 19C17.4183 19 21 15.4183 21 11C21 6.58172 17.4183 3 13 3C8.58172 3 5 6.58172 5 11C5 15.4183 8.58172 19 13 19Z" stroke="white" stroke-linecap="round" stroke-linejoin="round"/>
</svg>
