<svg width="18" height="18" viewBox="0 0 18 18" fill="none" xmlns="http://www.w3.org/2000/svg">
<path d="M15.1875 1.6875V13.5C15.1875 13.9476 15.0097 14.3768 14.6932 14.6932C14.3768 15.0097 13.9476 15.1875 13.5 15.1875H6.75C6.30245 15.1875 5.87323 15.0097 5.55676 14.6932C5.24029 14.3768 5.0625 13.9476 5.0625 13.5V1.6875C5.0625 1.23995 5.24029 0.810725 5.55676 0.494257C5.87323 0.17779 6.30245 0 6.75 0H13.5C13.9476 0 14.3768 0.17779 14.6932 0.494257C15.0097 0.810725 15.1875 1.23995 15.1875 1.6875ZM14.0625 1.6875C14.0625 1.53832 14.0032 1.39524 13.8977 1.28975C13.7923 1.18426 13.6492 1.125 13.5 1.125H6.75C6.60082 1.125 6.45774 1.18426 6.35225 1.28975C6.24676 1.39524 6.1875 1.53832 6.1875 1.6875V7.59375V13.5C6.1875 13.6492 6.24676 13.7923 6.35225 13.8977C6.45774 14.0032 6.60082 14.0625 6.75 14.0625H13.5C13.6492 14.0625 13.7923 14.0032 13.8977 13.8977C14.0032 13.7923 14.0625 13.6492 14.0625 13.5V1.6875Z" fill="white"/>
<path d="M5 3.8125H11V15.9998H5V3.8125Z" fill="white"/>
<path d="M12.125 4.375V16.1875C12.125 16.6351 11.9472 17.0643 11.6307 17.3807C11.3143 17.6972 10.8851 17.875 10.4375 17.875H3.6875C3.23995 17.875 2.81072 17.6972 2.49426 17.3807C2.17779 17.0643 2 16.6351 2 16.1875V4.375C2 3.92745 2.17779 3.49822 2.49426 3.18176C2.81072 2.86529 3.23995 2.6875 3.6875 2.6875H10.4375C10.8851 2.6875 11.3143 2.86529 11.6307 3.18176C11.9472 3.49822 12.125 3.92745 12.125 4.375ZM11 4.375C11 4.22582 10.9407 4.08274 10.8352 3.97725C10.7298 3.87176 10.5867 3.8125 10.4375 3.8125H3.6875C3.53832 3.8125 3.39524 3.87176 3.28975 3.97725C3.18426 4.08274 3.125 4.22582 3.125 4.375V16.1875C3.125 16.3367 3.18426 16.4798 3.28975 16.5852C3.39524 16.6907 3.53832 16.75 3.6875 16.75H10.4375C10.5867 16.75 10.7298 16.6907 10.8352 16.5852C10.9407 16.4798 11 16.3367 11 16.1875V4.375Z" fill="white"/>
</svg>
