<svg width="24" height="24" viewBox="0 0 24 24" fill="none" xmlns="http://www.w3.org/2000/svg">
<path d="M11 7.66669V9.66669" stroke="black" stroke-linecap="round" stroke-linejoin="round"/>
<path d="M5.76416 11.3409L7.66666 11.9584" stroke="black" stroke-linecap="round" stroke-linejoin="round"/>
<path d="M7.76416 17.285L8.93999 15.6667" stroke="black" stroke-linecap="round" stroke-linejoin="round"/>
<path d="M14.2359 17.285L13.0601 15.6667" stroke="black" stroke-linecap="round" stroke-linejoin="round"/>
<path d="M16.2358 11.3409L14.3333 11.9584" stroke="black" stroke-linecap="round" stroke-linejoin="round"/>
<path d="M14.0209 5.59003L11.0001 7.66669L7.97925 5.59003" stroke="black" stroke-linecap="round" stroke-linejoin="round"/>
<path d="M18.9876 13.4517L16.2351 11.34L17.2309 7.98169" stroke="black" stroke-linecap="round" stroke-linejoin="round"/>
<path d="M4.76936 7.98169L5.76436 11.34L3.0127 13.4517" stroke="black" stroke-linecap="round" stroke-linejoin="round"/>
<path d="M13.0107 20.745L14.2357 17.285H17.7566" stroke="black" stroke-linecap="round" stroke-linejoin="round"/>
<path d="M4.24316 17.285H7.764L8.989 20.745" stroke="black" stroke-linecap="round" stroke-linejoin="round"/>
<path d="M11.0001 9.66666L7.66675 11.9583L8.94008 15.6667H13.0601L14.3334 11.9583L11.0001 9.66666Z" stroke="black" stroke-linecap="round" stroke-linejoin="round"/>
<path d="M11 21C15.4183 21 19 17.4183 19 13C19 8.58172 15.4183 5 11 5C6.58172 5 3 8.58172 3 13C3 17.4183 6.58172 21 11 21Z" stroke="black" stroke-linecap="round" stroke-linejoin="round"/>
<path d="M15.5 4.5L16.5 2.5L17 5L21 3L19 7L21.5 7.5L19.5 8.5" stroke="black" stroke-linecap="round" stroke-linejoin="round"/>
</svg>
