<svg width="32" height="32" viewBox="0 0 32 32" fill="none" xmlns="http://www.w3.org/2000/svg">
<path d="M15.8834 32C6.17633 26.69 1.3981 15.15 2.06062 4.45C2.09074 4 2.30154 3.83 2.73319 3.92C7.45119 5.06 12.4402 3.38 15.8131 0C15.9336 0 16.0641 0 16.1946 0C19.5172 3.32 24.3858 5.02 29.0335 3.97C29.3949 3.85 29.9169 3.84 29.937 4.34C30.0173 5.59 30.0173 6.84 29.9571 8.09C29.947 8.4 30.0474 11.01 29.0436 13.01C28.8729 11.64 29.0837 6.96 29.0436 5.24C29.0436 5.02 29.0235 4.94 28.7525 4.98C24.1248 5.81 19.6879 4.37 16.1946 1.28C16.0339 1.14 15.9336 1.15 15.783 1.28C14.4178 2.48 12.902 3.45 11.2156 4.14C8.63571 5.19 5.96552 5.46 3.22507 4.98C2.98415 4.94 2.95403 4.99 2.94399 5.21C2.83357 9.04 3.34553 12.79 4.56016 16.43C6.51763 22.37 10.3021 27.72 15.8031 30.89C15.9436 30.97 16.0339 30.97 16.1644 30.89C18.8949 29.3 21.1736 27.22 23.0708 24.71C26.3433 20.4 28.2405 15.29 28.8428 9.94C28.8428 9.86 29.0034 9.07 29.0235 8.99C29.0938 8.73 29.8065 9.55 29.7864 9.82C29.7463 10.27 29.6961 10.71 29.6258 11.15C28.4212 19.62 23.7534 27.8 16.0942 31.99H15.8432L15.8834 32Z" fill="#36CFDB"/>
<path d="M24 15.991C24.009 20.3906 20.4183 23.991 16.0045 24C11.5907 24 8.00906 20.4265 8.00002 16.009C7.99097 11.6094 11.5817 8.00898 15.9955 8C20.4093 8 23.9909 11.5735 24 15.991ZM15.9864 13.1987C16.4296 13.1987 16.8638 13.1987 17.3069 13.1987C17.4517 13.1987 17.5512 13.1717 17.6326 13.046C17.9582 12.5881 18.2838 12.1392 18.6184 11.6813C18.6998 11.5735 18.7089 11.4837 18.6546 11.349C18.3199 10.6308 17.9853 9.91246 17.6597 9.18518C17.6054 9.05948 17.524 8.99663 17.3974 8.97868C16.4658 8.7991 15.5432 8.7991 14.6116 8.97868C14.485 9.00561 14.4036 9.05948 14.3494 9.18518C14.0237 9.90348 13.6981 10.6128 13.3635 11.3221C13.2911 11.4658 13.3002 11.5735 13.3997 11.6992C13.7253 12.1302 14.0509 12.5701 14.3584 13.0101C14.4579 13.1538 14.5664 13.1987 14.7292 13.1897C15.1543 13.1807 15.5704 13.1897 15.9955 13.1897L15.9864 13.1987ZM19.5681 12.0404C19.4686 12.0135 19.3782 12.0673 19.2968 12.1841C18.9712 12.642 18.6456 13.0999 18.3019 13.5488C18.2205 13.6566 18.2114 13.7553 18.2476 13.881C18.528 14.725 18.7993 15.569 19.0707 16.413C19.1068 16.5297 19.1611 16.6016 19.2877 16.6375C19.8394 16.8081 20.3912 16.9877 20.9429 17.1762C21.0514 17.2121 21.1328 17.2031 21.2142 17.1223C21.8112 16.5657 22.4081 16.018 23.0051 15.4613C23.0774 15.3984 23.1317 15.3356 23.1136 15.2189C22.996 14.2402 22.6976 13.3244 22.2182 12.4714C22.173 12.3906 22.1187 12.3457 22.0192 12.3367C21.2142 12.2469 20.4002 12.1481 19.5591 12.0494L19.5681 12.0404ZM8.88639 15.2278C8.85021 15.3535 8.94066 15.4074 9.00397 15.4703C9.58283 16.009 10.1707 16.5477 10.7496 17.0954C10.8672 17.2031 10.9576 17.2121 11.1023 17.1582C11.6269 16.9787 12.1515 16.8081 12.6761 16.6465C12.8208 16.6016 12.8841 16.5297 12.9293 16.3861C13.1916 15.56 13.463 14.734 13.7343 13.908C13.7886 13.7464 13.7705 13.6296 13.662 13.5039C13.3454 13.0909 13.0379 12.6689 12.7394 12.229C12.6309 12.0673 12.5042 12.0224 12.3234 12.0494C11.5546 12.1481 10.7858 12.2379 10.0079 12.3277C9.90844 12.3367 9.83608 12.3636 9.78181 12.4624C9.28436 13.3244 8.98588 14.2492 8.87735 15.2278H8.88639ZM15.5794 20.2738C15.5794 19.9327 15.5794 19.6453 15.5794 19.367C15.5794 19.2323 15.5523 19.1425 15.4347 19.0617C14.7021 18.541 13.9785 18.0112 13.255 17.4815C13.1645 17.4186 13.0831 17.4007 12.9746 17.4366C12.4228 17.6251 11.8802 17.7957 11.3194 17.9753C11.2018 18.0112 11.1385 18.0741 11.1114 18.1998C10.9667 18.9809 10.8129 19.7531 10.6501 20.5342C10.623 20.6599 10.632 20.7587 10.7315 20.8575C11.3827 21.5488 12.1244 22.0965 12.9836 22.5006C13.1193 22.5634 13.2188 22.5634 13.3454 22.4826C13.7795 22.2312 14.2227 21.9888 14.6659 21.7374C14.9553 21.5758 15.3352 21.468 15.5161 21.2166C15.697 20.9562 15.5523 20.5432 15.5704 20.2649L15.5794 20.2738ZM16.4206 20.0584C16.4206 20.4624 16.4206 20.7318 16.4206 21.0101C16.4206 21.1717 16.4658 21.2615 16.6105 21.3423C17.2889 21.7104 17.9672 22.0875 18.6365 22.4826C18.7903 22.5724 18.9079 22.5634 19.0526 22.4826C19.8756 22.0875 20.6082 21.5488 21.2323 20.8844C21.3409 20.7677 21.377 20.6689 21.3409 20.5163C21.1781 19.7531 21.0243 18.9809 20.8886 18.2088C20.8615 18.0561 20.771 17.9933 20.6354 17.9484C20.1198 17.7868 19.6043 17.6162 19.0887 17.4456C18.935 17.3917 18.8174 17.4186 18.6817 17.5174C18.2114 17.8765 17.7592 18.2536 17.2527 18.5499C16.6015 18.936 16.1945 19.3939 16.4206 20.0584ZM16.0045 14.0426C15.6066 14.0426 15.1995 14.0426 14.8016 14.0426C14.6388 14.0426 14.5483 14.0786 14.5031 14.2492C14.2589 15.0213 14.0147 15.7935 13.7524 16.5657C13.6981 16.7183 13.7434 16.7991 13.87 16.8799C14.5212 17.3468 15.1724 17.8137 15.8236 18.2985C15.9593 18.3973 16.0497 18.4153 16.1854 18.3075C16.8366 17.8227 17.4969 17.3468 18.1571 16.8709C18.2928 16.7722 18.3019 16.6914 18.2566 16.5477C18.0034 15.7845 17.7501 15.0213 17.515 14.2581C17.4607 14.0786 17.3703 14.0337 17.1984 14.0337C16.8095 14.0426 16.4115 14.0337 16.0226 14.0337L16.0045 14.0426ZM14.3222 22.8956C15.4528 23.2189 16.5562 23.2278 17.7411 22.9315C17.1532 22.5993 16.6196 22.303 16.095 22.0067C16.0317 21.9708 15.9774 21.9708 15.9141 22.0067C15.3895 22.303 14.8559 22.5993 14.3313 22.8956H14.3222ZM10.5144 11.4209C11.1837 11.3401 11.7807 11.2682 12.3867 11.2054C12.459 11.2054 12.5042 11.1695 12.5404 11.1066C12.7937 10.5499 13.056 10.0022 13.3454 9.37374C12.2058 9.84063 11.3104 10.4961 10.5235 11.4209H10.5144ZM21.4856 11.4209C20.6987 10.4961 19.8033 9.84063 18.6636 9.37374C18.944 9.99327 19.1973 10.541 19.4505 11.0887C19.4867 11.1605 19.5319 11.2054 19.6224 11.2144C20.2193 11.2772 20.8163 11.349 21.4856 11.4299V11.4209ZM8.92257 16.5477C8.95875 17.7059 9.2934 18.7654 9.93557 19.807C10.0712 19.1336 10.1888 18.532 10.3154 17.9394C10.3335 17.8586 10.2883 17.8137 10.234 17.7688C9.7999 17.3648 9.35671 16.9607 8.92257 16.5477ZM23.1317 16.5657C23.1317 16.5657 23.0684 16.5657 23.0593 16.5746C22.7609 16.844 22.4895 17.1493 22.1639 17.3827C21.7388 17.688 21.6303 18.0292 21.7931 18.523C21.9197 18.9181 21.974 19.3311 22.0644 19.807C22.7066 18.7654 23.0503 17.7149 23.1407 16.5657H23.1317Z" fill="#BFC3C6"/>
</svg>
