<svg width="28" height="28" viewBox="0 0 28 28" fill="none" xmlns="http://www.w3.org/2000/svg">
<g clip-path="url(#clip0_5795_15052)">
<path d="M14 24.5C19.799 24.5 24.5 19.799 24.5 14C24.5 8.20101 19.799 3.5 14 3.5C8.20101 3.5 3.5 8.20101 3.5 14C3.5 19.799 8.20101 24.5 14 24.5Z" fill="#17181A" stroke="white" stroke-linecap="round" stroke-linejoin="round"/>
<path d="M14 9.625L9.625 12.6328L11.2962 17.5H16.7038L18.375 12.6328L14 9.625Z" fill="#17181A" stroke="white" stroke-linecap="round" stroke-linejoin="round"/>
<path d="M17.9648 4.27441L14 7.00004L10.0352 4.27441" fill="#17181A"/>
<path d="M17.9648 4.27441L14 7.00004L10.0352 4.27441" stroke="white" stroke-linecap="round" stroke-linejoin="round"/>
<path d="M24.4837 14.5929L20.8711 11.8214L22.1781 7.41357" fill="#17181A"/>
<path d="M24.4837 14.5929L20.8711 11.8214L22.1781 7.41357" stroke="white" stroke-linecap="round" stroke-linejoin="round"/>
<path d="M5.82223 7.41357L7.12816 11.8214L3.5166 14.5929" fill="#17181A"/>
<path d="M5.82223 7.41357L7.12816 11.8214L3.5166 14.5929" stroke="white" stroke-linecap="round" stroke-linejoin="round"/>
<path d="M16.6392 24.1653L18.247 19.624H22.8681" fill="#17181A"/>
<path d="M16.6392 24.1653L18.247 19.624H22.8681" stroke="white" stroke-linecap="round" stroke-linejoin="round"/>
<path d="M5.13184 19.624H9.75293L11.3607 24.1653" fill="#17181A"/>
<path d="M5.13184 19.624H9.75293L11.3607 24.1653" stroke="white" stroke-linecap="round" stroke-linejoin="round"/>
<path d="M14 7V9.625" stroke="white" stroke-linecap="round" stroke-linejoin="round"/>
<path d="M7.12793 11.8223L9.62496 12.6327" stroke="white" stroke-linecap="round" stroke-linejoin="round"/>
<path d="M9.75293 19.6241L11.2962 17.5" stroke="white" stroke-linecap="round" stroke-linejoin="round"/>
<path d="M18.2469 19.6241L16.7036 17.5" stroke="white" stroke-linecap="round" stroke-linejoin="round"/>
<path d="M20.872 11.8223L18.375 12.6327" stroke="white" stroke-linecap="round" stroke-linejoin="round"/>
</g>
<defs>
<clipPath id="clip0_5795_15052">
<rect width="28" height="28" fill="white"/>
</clipPath>
</defs>
</svg>
