<svg width="32" height="32" viewBox="0 0 32 32" fill="none" xmlns="http://www.w3.org/2000/svg">
<g clip-path="url(#clip0_5795_14999)">
<circle cx="16" cy="16" r="16" fill="#212121"/>
<path d="M16 0.883953C18.041 0.883953 20.0207 1.2835 21.8836 2.07154C23.6833 2.83263 25.3001 3.92299 26.6888 5.31123C28.0775 6.69992 29.1674 8.31623 29.9285 10.1164C30.7165 11.9793 31.116 13.959 31.116 16C31.116 18.041 30.7165 20.0207 29.9285 21.8836C29.1674 23.6833 28.077 25.3001 26.6888 26.6888C25.3001 28.0775 23.6838 29.1674 21.8836 29.9285C20.0207 30.7165 18.041 31.116 16 31.116C13.959 31.116 11.9793 30.7165 10.1164 29.9285C8.31668 29.1674 6.69992 28.077 5.31123 26.6888C3.92254 25.3001 2.83263 23.6838 2.07154 21.8836C1.2835 20.0207 0.883953 18.041 0.883953 16C0.883953 13.959 1.2835 11.9793 2.07154 10.1164C2.83263 8.31668 3.92299 6.69992 5.31123 5.31123C6.69992 3.92254 8.31623 2.83263 10.1164 2.07154C11.9793 1.2835 13.959 0.883953 16 0.883953ZM16 0C7.16356 0 0 7.16356 0 16C0 24.8364 7.16356 32 16 32C24.8364 32 32 24.8364 32 16C32 7.16356 24.8364 0 16 0Z" fill="#C9F74A"/>
<path d="M25.6505 14.9075L28.8266 9.40622C27.7194 7.22948 26.0452 5.31307 23.8685 3.90184L18.072 6.48254L13.8263 1.76709C11.3685 2.1578 9.02514 3.18407 7.05701 4.77607L7.72086 11.0915L1.91948 13.6744C1.52435 16.1764 1.80766 18.7209 2.69957 21.0452L8.90006 22.3628L9.56258 28.668C11.8732 29.8485 14.3713 30.3418 16.8106 30.2123L19.9857 24.7128L26.1999 26.0334C27.0631 25.1689 27.8286 24.1788 28.4681 23.0704C29.1077 21.9628 29.5819 20.8057 29.8993 19.6269L25.6492 14.9071L25.6505 14.9075Z" fill="#C9F74A"/>
<path d="M13.2728 13.7844C13.7781 13.7844 14.1877 13.0964 14.1877 12.2477C14.1877 11.399 13.7781 10.7109 13.2728 10.7109C12.7675 10.7109 12.3579 11.399 12.3579 12.2477C12.3579 13.0964 12.7675 13.7844 13.2728 13.7844Z" fill="black"/>
<path d="M19.0497 13.7844C19.5549 13.7844 19.9645 13.0964 19.9645 12.2477C19.9645 11.399 19.5549 10.7109 19.0497 10.7109C18.5444 10.7109 18.1348 11.399 18.1348 12.2477C18.1348 13.0964 18.5444 13.7844 19.0497 13.7844Z" fill="black"/>
<path d="M22.5475 17.4385C22.5475 17.4385 19.6251 19.5083 10.5845 15.9893C10.6981 18.3463 11.3681 20.2221 12.595 21.6156C14.0787 23.3013 16.644 23.5272 18.3093 22.0205C19.527 20.9191 19.9168 19.815 20.2655 18.0842" fill="white"/>
<path d="M15.6918 23.3587C15.6087 23.3587 15.5256 23.3565 15.4421 23.3516C14.2638 23.2845 13.1354 22.7315 12.3461 21.8348C11.0741 20.39 10.37 18.4285 10.2533 16.0051C10.248 15.8928 10.2997 15.7859 10.3908 15.72C10.4818 15.6546 10.5998 15.6396 10.7046 15.6802C13.2168 16.6579 16.8432 17.8035 19.8455 17.7058C21.2722 17.6594 22.1129 17.3324 22.3582 17.1662C22.5075 17.0601 22.7131 17.0968 22.8187 17.2462C22.9243 17.3956 22.8876 17.6033 22.7383 17.7094C22.6826 17.7487 22.0466 18.1765 20.554 18.325C20.1934 20.0523 19.7607 21.1546 18.5311 22.267C17.747 22.976 16.7468 23.3592 15.6914 23.3592L15.6918 23.3587ZM10.9499 16.4842C11.1266 18.5177 11.7627 20.1685 12.8437 21.3968C13.5169 22.1614 14.4777 22.6325 15.4801 22.6896C16.448 22.7448 17.374 22.42 18.0873 21.7747C19.1485 20.8151 19.5388 19.8812 19.8676 18.3692C18.0175 18.4289 15.1561 18.0674 10.9503 16.4842H10.9499Z" fill="black"/>
</g>
<defs>
<clipPath id="clip0_5795_14999">
<rect width="32" height="32" fill="white"/>
</clipPath>
</defs>
</svg>
