<svg width="18" height="18" viewBox="0 0 18 18" fill="none" xmlns="http://www.w3.org/2000/svg">
<path d="M14.0625 3.375V15.1875C14.0625 15.6351 13.8847 16.0643 13.5682 16.3807C13.2518 16.6972 12.8226 16.875 12.375 16.875H5.625C5.17745 16.875 4.74823 16.6972 4.43176 16.3807C4.11529 16.0643 3.9375 15.6351 3.9375 15.1875V3.375C3.9375 2.92745 4.11529 2.49823 4.43176 2.18176C4.74823 1.86529 5.17745 1.6875 5.625 1.6875H12.375C12.8226 1.6875 13.2518 1.86529 13.5682 2.18176C13.8847 2.49823 14.0625 2.92745 14.0625 3.375ZM12.9375 3.375C12.9375 3.22582 12.8782 3.08274 12.7727 2.97725C12.6673 2.87176 12.5242 2.8125 12.375 2.8125H5.625C5.47582 2.8125 5.33274 2.87176 5.22725 2.97725C5.12176 3.08274 5.0625 3.22582 5.0625 3.375V15.1875C5.0625 15.3367 5.12176 15.4798 5.22725 15.5852C5.33274 15.6907 5.47582 15.75 5.625 15.75H12.375C12.5242 15.75 12.6673 15.6907 12.7727 15.5852C12.8782 15.4798 12.9375 15.3367 12.9375 15.1875V3.375Z" fill="white"/>
</svg>
