<svg width="44" height="44" viewBox="0 0 44 44" fill="none" xmlns="http://www.w3.org/2000/svg">
<path d="M26.1193 30.1309C26.2006 30.2122 26.265 30.3087 26.309 30.415C26.353 30.5212 26.3757 30.635 26.3757 30.75C26.3757 30.865 26.353 30.9788 26.309 31.085C26.265 31.1913 26.2006 31.2878 26.1193 31.3691C26.038 31.4504 25.9415 31.5148 25.8352 31.5588C25.729 31.6028 25.6152 31.6255 25.5002 31.6255C25.3852 31.6255 25.2714 31.6028 25.1652 31.5588C25.0589 31.5148 24.9624 31.4504 24.8811 31.3691L16.1311 22.6191C16.0498 22.5378 15.9852 22.4413 15.9412 22.3351C15.8972 22.2288 15.8745 22.115 15.8745 22C15.8745 21.885 15.8972 21.7711 15.9412 21.6649C15.9852 21.5587 16.0498 21.4622 16.1311 21.3809L24.8811 12.6309C25.0453 12.4668 25.268 12.3745 25.5002 12.3745C25.7324 12.3745 25.9551 12.4668 26.1193 12.6309C26.2834 12.7951 26.3757 13.0178 26.3757 13.25C26.3757 13.4822 26.2834 13.7049 26.1193 13.8691L17.9872 22L26.1193 30.1309Z" fill="white"/>
</svg>
