<svg width="44" height="44" viewBox="0 0 44 44" fill="none" xmlns="http://www.w3.org/2000/svg">
<g clip-path="url(#clip0_4632_5455)">
<path d="M22 22.9375C22.5178 22.9375 22.9375 22.5178 22.9375 22C22.9375 21.4822 22.5178 21.0625 22 21.0625C21.4822 21.0625 21.0625 21.4822 21.0625 22C21.0625 22.5178 21.4822 22.9375 22 22.9375Z" fill="#D7D9DB"/>
<path d="M15.625 22.9375C16.1428 22.9375 16.5625 22.5178 16.5625 22C16.5625 21.4822 16.1428 21.0625 15.625 21.0625C15.1072 21.0625 14.6875 21.4822 14.6875 22C14.6875 22.5178 15.1072 22.9375 15.625 22.9375Z" fill="#D7D9DB"/>
<path d="M28.375 22.9375C28.8928 22.9375 29.3125 22.5178 29.3125 22C29.3125 21.4822 28.8928 21.0625 28.375 21.0625C27.8572 21.0625 27.4375 21.4822 27.4375 22C27.4375 22.5178 27.8572 22.9375 28.375 22.9375Z" fill="#D7D9DB"/>
</g>
<defs>
<clipPath id="clip0_4632_5455">
<rect width="24" height="24" fill="white" transform="translate(10 10)"/>
</clipPath>
</defs>
</svg>
