<svg width="25" height="24" viewBox="0 0 25 24" fill="none" xmlns="http://www.w3.org/2000/svg">
<path d="M10.2533 7.56468C10.2089 7.52033 10.1737 7.46769 10.1497 7.40975C10.1257 7.35182 10.1134 7.28972 10.1134 7.22701C10.1134 7.1643 10.1257 7.1022 10.1497 7.04426C10.1737 6.98632 10.2089 6.93368 10.2533 6.88934C10.2976 6.84499 10.3502 6.80982 10.4082 6.78582C10.4661 6.76182 10.5282 6.74947 10.5909 6.74947C10.6536 6.74947 10.7157 6.76182 10.7737 6.78582C10.8316 6.80982 10.8843 6.84499 10.9286 6.88934L15.7013 11.6621C15.7457 11.7064 15.7809 11.759 15.8049 11.817C15.8289 11.8749 15.8413 11.937 15.8413 11.9997C15.8413 12.0625 15.8289 12.1246 15.8049 12.1825C15.7809 12.2404 15.7457 12.2931 15.7013 12.3374L10.9286 17.1101C10.839 17.1997 10.7176 17.25 10.5909 17.25C10.4643 17.25 10.3428 17.1997 10.2533 17.1101C10.1637 17.0206 10.1134 16.8991 10.1134 16.7725C10.1134 16.6458 10.1637 16.5243 10.2533 16.4348L14.6889 11.9997L10.2533 7.56468Z" fill="white"/>
</svg>
