<svg width="343" height="121" viewBox="0 0 343 121" fill="none" xmlns="http://www.w3.org/2000/svg">
<g clip-path="url(#clip0_3856_9287)">
<rect width="343" height="121" rx="12" fill="url(#paint0_linear_3856_9287)"/>
<path d="M236 46.5L207 -5H292.5L321.5 46.5H292.5L340 125.5H254L207 46.5H236Z" fill="#D76064" fill-opacity="0.4"/>
<path d="M67.3978 46.544C42.242 46.3542 28.5494 52.2598 10.2307 67.8846C7.07368 70.5774 6.04302 74.9982 7.54649 78.8657L32.4133 142.832C34.9262 149.296 43.077 151.252 48.754 147.269C64.0189 136.557 78.0464 132.871 100.833 130.606C102.886 130.402 104.835 129.575 106.439 128.277C122.644 115.162 137.531 109.886 156.57 107.648C163.537 106.83 168.028 99.6018 165.193 93.1847L136.435 28.1076C134.881 24.5911 131.439 22.2428 127.595 22.2756C102.501 22.4894 90.6796 29.4866 74.4802 43.9034C72.5373 45.6325 69.9987 46.5636 67.3978 46.544Z" fill="#D76064" fill-opacity="0.5"/>
</g>
<defs>
<linearGradient id="paint0_linear_3856_9287" x1="44.8" y1="-3.63" x2="76.0167" y2="178.025" gradientUnits="userSpaceOnUse">
<stop stop-color="#FF895F"/>
<stop offset="1" stop-color="#FC69B1"/>
</linearGradient>
<clipPath id="clip0_3856_9287">
<rect width="343" height="121" fill="white"/>
</clipPath>
</defs>
</svg>
