<svg width="343" height="121" viewBox="0 0 343 121" fill="none" xmlns="http://www.w3.org/2000/svg">
<g clip-path="url(#clip0_3856_9303)">
<rect width="343" height="121" rx="12" fill="url(#paint0_linear_3856_9303)"/>
<path d="M236 46.5L207 -5H292.5L321.5 46.5H292.5L340 125.5H254L207 46.5H236Z" fill="#328B6B" fill-opacity="0.4"/>
<path fill-rule="evenodd" clip-rule="evenodd" d="M29.8398 43.658C27.0316 44.6415 25.5525 47.7153 26.536 50.5234L29.1167 57.8921L12.5127 63.7074C11.4117 64.093 10.5091 64.9001 10.0032 65.9513C9.49739 67.0024 9.42984 68.2114 9.81543 69.3124L12.7231 77.6145C14.2655 82.0183 17.4941 85.629 21.6986 87.6523C25.9031 89.6756 30.7392 89.9458 35.1429 88.4035L40.2276 86.6226C41.4225 88.5245 42.7799 90.3257 44.2874 92.0053C47.7768 95.8929 52.0012 99.0513 56.717 101.299C61.4328 103.546 66.5468 104.838 71.7641 105.099C75.9822 105.311 80.2003 104.845 84.2596 103.727C84.2686 103.756 84.278 103.784 84.288 103.813L90.667 122.026L76.605 126.951C75.201 127.443 74.4614 128.98 74.9531 130.384C75.4449 131.788 76.9818 132.527 78.3858 132.036L111.595 120.405C112.999 119.913 113.738 118.376 113.246 116.972C112.755 115.568 111.218 114.828 109.814 115.32L95.7516 120.245L89.3726 102.032C89.3626 102.003 89.3523 101.975 89.3415 101.948C105.514 95.0159 114.791 78.1927 112.995 61.1367L118.165 59.3261C122.568 57.7838 126.179 54.5552 128.202 50.3507C130.226 46.1462 130.496 41.3101 128.954 36.9063L126.046 28.6041C125.66 27.5032 124.853 26.6005 123.802 26.0947C122.751 25.5889 121.542 25.5213 120.441 25.9069L103.837 31.7223L103.838 31.7283L101.256 24.354C100.272 21.5458 97.1984 20.0667 94.3902 21.0502L29.8398 43.658ZM106.062 38.0782L110.942 52.0111C111.226 52.8212 111.482 53.6348 111.712 54.4508L115.939 52.9704C118.657 52.0184 120.885 50.0257 122.134 47.4305C123.383 44.8354 123.55 41.8504 122.598 39.1323L120.462 33.0348L106.063 38.0781C106.062 38.0781 106.062 38.0781 106.062 38.0782ZM37.1184 80.5762C36.8579 79.9405 36.6136 79.2974 36.386 78.6475L31.3427 64.2478L16.9433 69.291L19.0789 75.3885C20.0309 78.1066 22.0236 80.3353 24.6187 81.5841C27.2139 82.8329 30.1988 82.9997 32.9169 82.0477L37.1184 80.5762Z" fill="#328B6B" fill-opacity="0.5"/>
</g>
<defs>
<linearGradient id="paint0_linear_3856_9303" x1="44.8" y1="-3.63" x2="76.0167" y2="178.025" gradientUnits="userSpaceOnUse">
<stop stop-color="#31DA86"/>
<stop offset="1" stop-color="#11A295"/>
</linearGradient>
<clipPath id="clip0_3856_9303">
<rect width="343" height="121" fill="white"/>
</clipPath>
</defs>
</svg>
