<svg width="24" height="24" viewBox="0 0 24 24" fill="none" xmlns="http://www.w3.org/2000/svg">
<rect x="2.5" y="4.5" width="19" height="13" rx="0.5" stroke="white"/>
<path d="M5.23138 8.77871L6.51738 12.6622L7.80834 8.74876C7.87785 8.54411 7.92751 8.39935 7.9573 8.31948C7.98709 8.23961 8.04667 8.16474 8.12612 8.09985C8.20556 8.03495 8.30983 8.005 8.44389 8.005C8.5432 8.005 8.63257 8.02996 8.71698 8.07988C8.80139 8.1298 8.86594 8.19469 8.91559 8.27955C8.96524 8.36441 8.9851 8.44427 8.9851 8.52913C8.9851 8.58903 8.97517 8.64893 8.96028 8.71881C8.94538 8.7887 8.92552 8.85359 8.90069 8.91848C8.87587 8.98337 8.85601 9.04826 8.83118 9.11815L7.45581 12.9018C7.40616 13.0466 7.3565 13.1864 7.30685 13.3161C7.2572 13.4459 7.20258 13.5607 7.13803 13.6606C7.07349 13.7604 6.98908 13.8403 6.87984 13.9052C6.77061 13.97 6.64151 14 6.48759 14C6.33366 14 6.1996 13.97 6.09533 13.9052C5.99106 13.8403 5.90169 13.7604 5.83714 13.6606C5.77259 13.5607 5.71301 13.4459 5.66336 13.3161C5.6137 13.1864 5.56405 13.0516 5.5144 12.9068L4.15889 9.15309C4.13406 9.08321 4.10924 9.01831 4.08937 8.95342C4.06951 8.88853 4.04469 8.81865 4.02483 8.73878C4.00497 8.65891 4 8.59901 4 8.54411C4 8.40933 4.05462 8.28953 4.15889 8.17472C4.26316 8.05991 4.39722 8.01 4.55611 8.01C4.75472 8.01 4.89374 8.0699 4.97319 8.19469C5.05263 8.31948 5.13704 8.51415 5.22145 8.78371L5.23138 8.77871Z" fill="white"/>
<path d="M13.0365 13.2413L12.7634 12.5125H10.4496L10.1765 13.2562C10.0723 13.5457 9.97791 13.7404 9.90343 13.8452C9.82895 13.9501 9.70482 13.995 9.53601 13.995C9.39201 13.995 9.26292 13.9401 9.15368 13.8353C9.04445 13.7304 8.98486 13.6056 8.98486 13.4659C8.98486 13.386 8.99976 13.3061 9.02459 13.2213C9.04941 13.1364 9.0941 13.0216 9.15368 12.8719L10.6085 9.10815C10.6482 8.99833 10.6979 8.86855 10.7575 8.7188C10.817 8.56905 10.8766 8.43927 10.9461 8.33943C11.0156 8.2396 11.1001 8.15973 11.2043 8.09484C11.3086 8.02995 11.4427 8 11.6015 8C11.7604 8 11.8945 8.02995 12.0037 8.09484C12.113 8.15973 12.1974 8.23461 12.2619 8.33444C12.3265 8.43428 12.3811 8.5391 12.4307 8.64892C12.4804 8.75873 12.535 8.90848 12.6045 9.09817L14.0891 12.8369C14.2033 13.1215 14.2629 13.3261 14.2629 13.4559C14.2629 13.5857 14.2083 13.7155 14.0991 13.8253C13.9898 13.9351 13.8558 13.995 13.7018 13.995C13.6125 13.995 13.533 13.98 13.4685 13.9451C13.4039 13.9101 13.3493 13.8652 13.3046 13.8103C13.2599 13.7554 13.2153 13.6655 13.1606 13.5507C13.106 13.4359 13.0663 13.3311 13.0315 13.2413H13.0365ZM10.7575 11.6339H12.4556L11.5966 9.24293L10.7525 11.6339H10.7575Z" fill="white"/>
<path d="M15.8173 11.4195H15.4151V13.2814C15.4151 13.526 15.3605 13.7057 15.2562 13.8205C15.152 13.9353 15.0129 13.9952 14.8392 13.9952C14.6554 13.9952 14.5114 13.9353 14.4121 13.8155C14.3128 13.6957 14.2632 13.516 14.2632 13.2814V8.82384C14.2632 8.56927 14.3178 8.38957 14.432 8.27476C14.5462 8.15995 14.725 8.10504 14.9732 8.10504H16.8451C17.1033 8.10504 17.3267 8.11502 17.5105 8.13998C17.6942 8.16494 17.858 8.20987 18.007 8.27476C18.1857 8.34963 18.3446 8.45945 18.4787 8.60421C18.6127 8.74897 18.722 8.91369 18.7915 9.09838C18.861 9.28308 18.8958 9.48773 18.8958 9.69738C18.8958 10.1317 18.7766 10.4761 18.5383 10.7307C18.2999 10.9852 17.9375 11.1699 17.4509 11.2797C17.6544 11.3896 17.8481 11.5543 18.0368 11.7689C18.2254 11.9836 18.3893 12.2132 18.5333 12.4578C18.6773 12.7024 18.7915 12.922 18.8759 13.1167C18.9603 13.3114 19 13.4461 19 13.521C19 13.5959 18.9752 13.6708 18.9305 13.7506C18.8858 13.8305 18.8163 13.8854 18.7369 13.9303C18.6574 13.9752 18.5581 13.9952 18.4489 13.9952C18.3198 13.9952 18.2106 13.9653 18.1212 13.9004C18.0318 13.8355 17.9573 13.7606 17.8928 13.6658C17.8282 13.5709 17.7438 13.4312 17.6346 13.2465L17.1728 12.4628C17.009 12.1733 16.86 11.9586 16.7309 11.8089C16.6018 11.6591 16.4678 11.5543 16.3337 11.4994C16.1996 11.4445 16.0308 11.4145 15.8272 11.4145L15.8173 11.4195ZM16.4777 8.98358H15.4151V10.5759H16.4479C16.7259 10.5759 16.9593 10.551 17.148 10.501C17.3367 10.4511 17.4807 10.3713 17.58 10.2515C17.6793 10.1317 17.7289 9.97193 17.7289 9.76727C17.7289 9.60753 17.6892 9.46278 17.6098 9.34298C17.5303 9.22318 17.4161 9.12833 17.2771 9.06843C17.143 9.00853 16.8799 8.98358 16.4826 8.98358H16.4777Z" fill="white"/>
<path d="M6 18H19V19C19 19.5523 18.5523 20 18 20H7C6.44772 20 6 19.5523 6 19V18Z" fill="white"/>
</svg>
