<svg width="80" height="80" viewBox="0 0 80 80" fill="none" xmlns="http://www.w3.org/2000/svg">
<g clip-path="url(#clip0_5780_40224)">
<path d="M65 12.5H15C13.6193 12.5 12.5 13.6193 12.5 15V65C12.5 66.3807 13.6193 67.5 15 67.5H65C66.3807 67.5 67.5 66.3807 67.5 65V15C67.5 13.6193 66.3807 12.5 65 12.5Z" stroke="#9FA4A9" stroke-width="2" stroke-linecap="round" stroke-linejoin="round"/>
<path d="M55 7.5V17.5" stroke="#9FA4A9" stroke-width="2" stroke-linecap="round" stroke-linejoin="round"/>
<path d="M25 7.5V17.5" stroke="#9FA4A9" stroke-width="2" stroke-linecap="round" stroke-linejoin="round"/>
<path d="M12.5 27.5H67.5" stroke="#9FA4A9" stroke-width="2" stroke-linecap="round" stroke-linejoin="round"/>
<path d="M40 44.375C41.7259 44.375 43.125 42.9759 43.125 41.25C43.125 39.5241 41.7259 38.125 40 38.125C38.2741 38.125 36.875 39.5241 36.875 41.25C36.875 42.9759 38.2741 44.375 40 44.375Z" fill="#393B41"/>
<path d="M53.75 44.375C55.4759 44.375 56.875 42.9759 56.875 41.25C56.875 39.5241 55.4759 38.125 53.75 38.125C52.0241 38.125 50.625 39.5241 50.625 41.25C50.625 42.9759 52.0241 44.375 53.75 44.375Z" fill="#393B41"/>
<path d="M26.25 56.875C27.9759 56.875 29.375 55.4759 29.375 53.75C29.375 52.0241 27.9759 50.625 26.25 50.625C24.5241 50.625 23.125 52.0241 23.125 53.75C23.125 55.4759 24.5241 56.875 26.25 56.875Z" fill="#393B41"/>
<path d="M40 56.875C41.7259 56.875 43.125 55.4759 43.125 53.75C43.125 52.0241 41.7259 50.625 40 50.625C38.2741 50.625 36.875 52.0241 36.875 53.75C36.875 55.4759 38.2741 56.875 40 56.875Z" fill="#393B41"/>
<path d="M53.75 56.875C55.4759 56.875 56.875 55.4759 56.875 53.75C56.875 52.0241 55.4759 50.625 53.75 50.625C52.0241 50.625 50.625 52.0241 50.625 53.75C50.625 55.4759 52.0241 56.875 53.75 56.875Z" fill="#393B41"/>
</g>
<defs>
<clipPath id="clip0_5780_40224">
<rect width="80" height="80" fill="white"/>
</clipPath>
</defs>
</svg>
