<svg width="120" height="120" viewBox="0 0 120 120" fill="none" xmlns="http://www.w3.org/2000/svg">
<path d="M60.6408 18.6609C64.9024 18.6609 69.155 19.2847 73.2811 20.5154C78.9956 22.2201 84.2051 24.9914 88.7638 28.7533C93.1675 32.3873 96.7847 36.7897 99.5122 41.8378C102.241 46.8847 103.943 52.3215 104.572 57.9972C105.223 63.8718 104.688 69.7477 102.985 75.4635C101.586 80.1539 99.4515 84.5331 96.6388 88.4796C93.9204 92.2957 90.6182 95.6417 86.8241 98.4273C83.07 101.183 78.9271 103.322 74.5079 104.785C70.0293 106.269 65.3764 107.02 60.6782 107.02C56.4166 107.02 52.1627 106.397 48.0379 105.166C42.3235 103.461 37.1139 100.69 32.5553 96.928C28.1516 93.294 24.5343 88.8916 21.8069 83.8434C19.0781 78.7966 17.3761 73.3598 16.7471 67.6841C16.0963 61.8095 16.6309 55.9335 18.3343 50.2178C19.7329 45.5274 21.8676 41.1482 24.6803 37.2017C27.3987 33.3856 30.7008 30.0382 34.495 27.254C38.2491 24.4981 42.3919 22.3595 46.8111 20.8964C51.2897 19.4125 55.9427 18.6609 60.6408 18.6609ZM60.6408 16.0781C40.5026 16.0781 21.9089 29.1937 15.8587 49.4804C8.47955 74.2225 22.5559 100.262 47.2993 107.642C51.7559 108.97 56.2539 109.603 60.6782 109.603C80.8165 109.603 99.4101 96.4876 105.46 76.2009C112.839 51.4588 98.7631 25.4189 74.0198 18.0398C69.5631 16.7109 65.0652 16.0781 60.6408 16.0781Z" fill="#C9F74A"/>
<path d="M88.5936 67.8398L102.08 55.0885C100.797 48.0697 97.7096 41.304 92.7932 35.5353L74.4074 37.9218L66.4575 21.1735C59.2489 20.2153 51.8311 21.1322 44.9905 23.9474L41.576 42.1847L23.176 44.5725C19.9798 51.2478 18.6496 58.6088 19.2062 65.8627L35.4676 74.7295L32.057 92.9383C37.5416 98.1737 44.1239 101.64 51.0627 103.315L64.545 90.5673L80.8425 99.4535C83.9819 97.754 86.9509 95.6206 89.668 93.0507C92.3838 90.4834 94.6774 87.6397 96.5512 84.6036L88.5923 67.8398H88.5936Z" fill="#C9F74A" stroke="#231815" stroke-width="1.29141" stroke-miterlimit="10"/>
<path d="M58.7204 50.827C59.4293 48.4506 58.857 46.182 57.4423 45.76C56.0275 45.338 54.3059 46.9223 53.597 49.2987C52.8881 51.6751 53.4604 53.9437 54.8751 54.3657C56.2899 54.7877 58.0115 53.2034 58.7204 50.827Z" fill="black"/>
<path d="M74.8991 55.6522C75.608 53.2758 75.0357 51.0072 73.621 50.5852C72.2062 50.1632 70.4846 51.7475 69.7757 54.1239C69.0669 56.5003 69.6391 58.7689 71.0539 59.1909C72.4686 59.6129 74.1902 58.0286 74.8991 55.6522Z" fill="black"/>
<path d="M50.1899 64.2889C57.2285 60.3928 62.306 60.1979 64.5418 65.1794C66.5312 69.6113 64.3335 75.7938 58.7778 79.5034C53.2236 83.2133 46.6372 82.9165 44.4259 78.6129C41.5855 73.0857 44.1994 67.6049 50.1899 64.2889Z" fill="#C9F74A" stroke="black" stroke-width="1.5" stroke-miterlimit="10"/>
<path d="M52 0H0V120H52V0Z" fill="#888888"/>
<path d="M113.052 19.2568L104.561 26.9614" stroke="white" stroke-width="1.93711" stroke-miterlimit="10" stroke-linecap="round"/>
<path d="M102.875 15.3037L100.289 22.6854" stroke="white" stroke-width="1.93711" stroke-miterlimit="10" stroke-linecap="round"/>
<path d="M116 29.7676L108.403 31.6272" stroke="white" stroke-width="1.93711" stroke-miterlimit="10" stroke-linecap="round"/>
<path d="M51.9526 0V120" stroke="black" stroke-width="1.5" stroke-miterlimit="10"/>
<path d="M64 99.5167C64 106.292 59.8232 110.603 55.0075 111.785C49.089 113.239 45.7468 107.125 46.015 99.5167C46.3097 91.1873 49.7066 85.748 55.0075 87.2488C59.7773 88.5987 64 92.7412 64 99.5167Z" fill="#C9F74A" stroke="black" stroke-width="1.5" stroke-miterlimit="10"/>
</svg>
