<svg width="24" height="24" viewBox="0 0 24 24" fill="none" xmlns="http://www.w3.org/2000/svg">
<g clip-path="url(#clip0_3000_20809)">
<path d="M9 18.8569C9 19.6526 9.31607 20.4156 9.87868 20.9783C10.4413 21.5409 11.2044 21.8569 12 21.8569C12.7956 21.8569 13.5587 21.5409 14.1213 20.9783C14.6839 20.4156 15 19.6526 15 18.8569" fill="#C9F74A"/>
<path d="M5.24988 8.89307C5.24988 7.10286 5.96104 5.38597 7.22691 4.1201C8.49278 2.85422 10.2097 2.14307 11.9999 2.14307C13.7901 2.14307 15.507 2.85422 16.7729 4.1201C18.0387 5.38597 18.7499 7.10286 18.7499 8.89307C18.7499 12.2512 19.528 14.9493 20.1468 16.0181C20.2125 16.1319 20.2471 16.261 20.2472 16.3924C20.2474 16.5238 20.2129 16.653 20.1474 16.7669C20.0819 16.8809 19.9876 16.9756 19.874 17.0416C19.7603 17.1076 19.6313 17.1426 19.4999 17.1431H4.49988C4.36861 17.1423 4.23985 17.107 4.12646 17.0409C4.01308 16.9748 3.91904 16.88 3.85375 16.7661C3.78845 16.6522 3.7542 16.5232 3.7544 16.3919C3.75459 16.2607 3.78925 16.1317 3.85488 16.0181C4.4727 14.9493 5.24988 12.2503 5.24988 8.89307Z" fill="#C9F74A" stroke="#C9F74A" stroke-width="1.5" stroke-linecap="round" stroke-linejoin="round"/>
</g>
<defs>
<clipPath id="clip0_3000_20809">
<rect width="24" height="24" fill="white"/>
</clipPath>
</defs>
</svg>
